<svg width="224" height="224" viewBox="0 0 224 224" fill="none" xmlns="http://www.w3.org/2000/svg">
<rect width="224" height="224" rx="48" fill="black"/>
<path fill-rule="evenodd" clip-rule="evenodd" d="M154.73 113.071V137.387C154.744 137.846 154.75 138.307 154.75 138.768C154.75 163.732 135.581 184 111.971 184C96.3575 184 82.6864 175.137 75.2171 161.913L89.6184 151.285C93.8693 158.559 101.48 163.41 110.154 163.41C123.468 163.41 134.277 151.981 134.277 137.904L134.275 133.883C142.969 129.397 150.141 122.084 154.73 113.071ZM114.221 44.5612C137.831 44.5612 157 64.8288 157 89.7928C157 114.757 137.831 135.024 114.221 135.024C90.6106 135.024 71.4419 114.757 71.4419 89.7928C71.4419 64.8288 90.6106 44.5612 114.221 44.5612ZM114.221 64.2871C127.535 64.2871 138.344 75.7158 138.344 89.7928C138.344 103.87 127.535 115.299 114.221 115.299C100.907 115.299 90.0981 103.87 90.0981 89.7928C90.0981 75.7158 100.907 64.2871 114.221 64.2871ZM154.73 66.5144C150.141 57.5011 142.969 50.1882 134.273 45.7008V44.5251H154.73V66.5144Z" fill="#FF00FF"/>
<g style="mix-blend-mode:screen">
<path fill-rule="evenodd" clip-rule="evenodd" d="M150.288 108.546V132.862C150.302 133.321 150.308 133.781 150.308 134.243C150.308 159.207 131.14 179.475 107.529 179.475C91.9155 179.475 78.2444 170.612 70.7751 157.388L85.1764 146.759C89.4274 154.034 97.0382 158.884 105.712 158.884C119.026 158.884 129.835 147.456 129.835 133.379L129.833 129.358C138.527 124.872 145.699 117.559 150.288 108.546ZM109.779 40.0361C133.389 40.0361 152.558 60.3037 152.558 85.2677C152.558 110.232 133.389 130.499 109.779 130.499C86.1687 130.499 67 110.232 67 85.2677C67 60.3037 86.1687 40.0361 109.779 40.0361ZM109.779 59.762C123.093 59.762 133.902 71.1908 133.902 85.2677C133.902 99.3447 123.093 110.773 109.779 110.773C96.4654 110.773 85.6562 99.3447 85.6562 85.2677C85.6562 71.1908 96.4654 59.762 109.779 59.762ZM150.288 61.9893C145.699 52.976 138.527 45.6631 129.831 41.1757V40H150.288V61.9893Z" fill="#00FFFF"/>
</g>
</svg>
