<svg width="100" height="100" viewBox="0 0 100 100" fill="none" xmlns="http://www.w3.org/2000/svg">
<path d="M0 26.4901C0 14.0025 0 7.75876 3.90524 3.87938C7.81049 0 14.0959 0 26.6667 0H73.3333C85.9041 0 92.1895 0 96.0948 3.87938C100 7.75876 100 14.0025 100 26.4901V73.5099C100 85.9975 100 92.2412 96.0948 96.1206C92.1895 100 85.9041 100 73.3333 100H26.6667C14.0959 100 7.81049 100 3.90524 96.1206C0 92.2412 0 85.9975 0 73.5099V26.4901Z" fill="#1F222C"/>
<mask id="mask0_5_13286" style="mask-type:alpha" maskUnits="userSpaceOnUse" x="0" y="0" width="250" height="250">
<path d="M23.2093 15.83C23.2813 15.83 23.4523 15.83 23.7223 15.83C23.9923 15.83 24.3163 15.83 24.6943 15.83C25.0723 15.83 25.4413 15.83 25.8013 15.83C26.1793 15.83 26.4943 15.83 26.7463 15.83C26.9983 15.83 27.1423 15.83 27.1783 15.83C27.2503 15.83 27.3043 15.848 27.3403 15.884C27.3763 15.902 27.4033 15.929 27.4213 15.965C27.4573 16.001 27.4753 16.055 27.4753 16.127C27.4753 16.163 27.4753 16.478 27.4753 17.072C27.4753 17.648 27.4753 18.404 27.4753 19.34C27.4753 20.258 27.4753 21.275 27.4753 22.391C27.4753 23.489 27.4753 24.596 27.4753 25.712C27.4753 26.828 27.4753 27.854 27.4753 28.79C27.4753 29.708 27.4753 30.464 27.4753 31.058C27.4753 31.634 27.4753 31.94 27.4753 31.976H23.2633L23.4253 31.274C23.4253 31.094 23.4253 30.797 23.4253 30.383C23.4253 29.951 23.4253 29.528 23.4253 29.114C23.4253 28.682 23.4253 28.376 23.4253 28.196C23.4253 28.106 23.4253 27.89 23.4253 27.548C23.4253 27.206 23.4253 26.783 23.4253 26.279C23.4253 25.757 23.4253 25.199 23.4253 24.605C23.4253 23.993 23.4253 23.399 23.4253 22.823C23.4253 22.229 23.4253 21.689 23.4253 21.203C23.4253 20.699 23.4253 20.294 23.4253 19.988C23.4253 19.664 23.4253 19.484 23.4253 19.448L23.7223 19.826H22.4533L23.1013 19.367C22.8493 19.889 22.5973 20.33 22.3453 20.69C22.1113 21.05 21.8593 21.356 21.5893 21.608C21.3193 21.86 21.0223 22.112 20.6983 22.364C20.4283 22.562 20.1943 22.733 19.9963 22.877C19.8163 23.003 19.6723 23.093 19.5643 23.147C19.4563 23.201 19.3753 23.228 19.3213 23.228C19.2853 23.228 19.2493 23.219 19.2133 23.201C19.1773 23.183 19.1503 23.156 19.1323 23.12C19.1143 23.066 19.1053 23.012 19.1053 22.958V18.638C19.4473 18.404 19.7893 18.17 20.1313 17.936C20.4733 17.702 20.8153 17.468 21.1573 17.234C21.3913 17.072 21.6523 16.892 21.9403 16.694C22.2283 16.496 22.4893 16.316 22.7233 16.154C22.9753 15.992 23.1373 15.884 23.2093 15.83ZM18.5653 31.166C18.6013 31.166 18.8443 31.166 19.2943 31.166C19.7623 31.166 20.3563 31.166 21.0763 31.166C21.8143 31.166 22.6063 31.166 23.4523 31.166C24.3163 31.166 25.1803 31.166 26.0443 31.166C26.9083 31.166 27.7003 31.166 28.4203 31.166C29.1583 31.166 29.7523 31.166 30.2023 31.166C30.6703 31.166 30.9223 31.166 30.9583 31.166C31.0483 31.166 31.1203 31.193 31.1743 31.247C31.2283 31.301 31.2553 31.373 31.2553 31.463C31.2553 31.535 31.2553 31.742 31.2553 32.084C31.2553 32.426 31.2553 32.813 31.2553 33.245C31.2553 33.659 31.2553 34.037 31.2553 34.379C31.2553 34.721 31.2553 34.928 31.2553 35C31.2193 35 30.9763 35 30.5263 35C30.0763 35 29.4913 35 28.7713 35C28.0513 35 27.2593 35 26.3953 35C25.5313 35 24.6673 35 23.8033 35C22.9573 35 22.1653 35 21.4273 35C20.6893 35 20.0863 35 19.6183 35C19.1683 35 18.9163 35 18.8623 35C18.8083 35 18.7633 34.991 18.7273 34.973C18.7093 34.955 18.6823 34.937 18.6463 34.919C18.6283 34.883 18.6103 34.847 18.5923 34.811C18.5743 34.775 18.5653 34.739 18.5653 34.703C18.5653 34.649 18.5653 34.505 18.5653 34.271C18.5653 34.037 18.5653 33.758 18.5653 33.434C18.5653 33.092 18.5653 32.759 18.5653 32.435C18.5653 32.111 18.5653 31.832 18.5653 31.598C18.5653 31.364 18.5653 31.22 18.5653 31.166Z" fill="white"/>
<path d="M73.2093 65.83C73.2813 65.83 73.4523 65.83 73.7223 65.83C73.9923 65.83 74.3163 65.83 74.6943 65.83C75.0723 65.83 75.4413 65.83 75.8013 65.83C76.1793 65.83 76.4943 65.83 76.7463 65.83C76.9983 65.83 77.1423 65.83 77.1783 65.83C77.2503 65.83 77.3043 65.848 77.3403 65.884C77.3763 65.902 77.4033 65.929 77.4213 65.965C77.4573 66.001 77.4753 66.055 77.4753 66.127C77.4753 66.163 77.4753 66.478 77.4753 67.072C77.4753 67.648 77.4753 68.404 77.4753 69.34C77.4753 70.258 77.4753 71.275 77.4753 72.391C77.4753 73.489 77.4753 74.596 77.4753 75.712C77.4753 76.828 77.4753 77.854 77.4753 78.79C77.4753 79.708 77.4753 80.464 77.4753 81.058C77.4753 81.634 77.4753 81.94 77.4753 81.976H73.2633L73.4253 81.274C73.4253 81.094 73.4253 80.797 73.4253 80.383C73.4253 79.951 73.4253 79.528 73.4253 79.114C73.4253 78.682 73.4253 78.376 73.4253 78.196C73.4253 78.106 73.4253 77.89 73.4253 77.548C73.4253 77.206 73.4253 76.783 73.4253 76.279C73.4253 75.757 73.4253 75.199 73.4253 74.605C73.4253 73.993 73.4253 73.399 73.4253 72.823C73.4253 72.229 73.4253 71.689 73.4253 71.203C73.4253 70.699 73.4253 70.294 73.4253 69.988C73.4253 69.664 73.4253 69.484 73.4253 69.448L73.7223 69.826H72.4533L73.1013 69.367C72.8493 69.889 72.5973 70.33 72.3453 70.69C72.1113 71.05 71.8593 71.356 71.5893 71.608C71.3193 71.86 71.0223 72.112 70.6983 72.364C70.4283 72.562 70.1943 72.733 69.9963 72.877C69.8163 73.003 69.6723 73.093 69.5643 73.147C69.4563 73.201 69.3753 73.228 69.3213 73.228C69.2853 73.228 69.2493 73.219 69.2133 73.201C69.1773 73.183 69.1503 73.156 69.1323 73.12C69.1143 73.066 69.1053 73.012 69.1053 72.958V68.638C69.4473 68.404 69.7893 68.17 70.1313 67.936C70.4733 67.702 70.8153 67.468 71.1573 67.234C71.3913 67.072 71.6523 66.892 71.9403 66.694C72.2283 66.496 72.4893 66.316 72.7233 66.154C72.9753 65.992 73.1373 65.884 73.2093 65.83ZM68.5653 81.166C68.6013 81.166 68.8443 81.166 69.2943 81.166C69.7623 81.166 70.3563 81.166 71.0763 81.166C71.8143 81.166 72.6063 81.166 73.4523 81.166C74.3163 81.166 75.1803 81.166 76.0443 81.166C76.9083 81.166 77.7003 81.166 78.4203 81.166C79.1583 81.166 79.7523 81.166 80.2023 81.166C80.6703 81.166 80.9223 81.166 80.9583 81.166C81.0483 81.166 81.1203 81.193 81.1743 81.247C81.2283 81.301 81.2553 81.373 81.2553 81.463C81.2553 81.535 81.2553 81.742 81.2553 82.084C81.2553 82.426 81.2553 82.813 81.2553 83.245C81.2553 83.659 81.2553 84.037 81.2553 84.379C81.2553 84.721 81.2553 84.928 81.2553 85C81.2193 85 80.9763 85 80.5263 85C80.0763 85 79.4913 85 78.7713 85C78.0513 85 77.2593 85 76.3953 85C75.5313 85 74.6673 85 73.8033 85C72.9573 85 72.1653 85 71.4273 85C70.6893 85 70.0863 85 69.6183 85C69.1683 85 68.9163 85 68.8623 85C68.8083 85 68.7633 84.991 68.7273 84.973C68.7093 84.955 68.6823 84.937 68.6463 84.919C68.6283 84.883 68.6103 84.847 68.5923 84.811C68.5743 84.775 68.5653 84.739 68.5653 84.703C68.5653 84.649 68.5653 84.505 68.5653 84.271C68.5653 84.037 68.5653 83.758 68.5653 83.434C68.5653 83.092 68.5653 82.759 68.5653 82.435C68.5653 82.111 68.5653 81.832 68.5653 81.598C68.5653 81.364 68.5653 81.22 68.5653 81.166Z" fill="white"/>
<path d="M74.5053 15.56C75.7833 15.56 76.9083 15.857 77.8803 16.451C78.8523 17.027 79.6083 17.873 80.1483 18.989C80.7063 20.087 80.9853 21.419 80.9853 22.985V28.115C80.9853 29.663 80.7063 30.995 80.1483 32.111C79.5903 33.227 78.8253 34.082 77.8533 34.676C76.8813 35.252 75.7653 35.54 74.5053 35.54C73.5693 35.54 72.7053 35.369 71.9133 35.027C71.1213 34.703 70.4283 34.226 69.8343 33.596C69.2583 32.948 68.8083 32.165 68.4843 31.247C68.1783 30.329 68.0253 29.285 68.0253 28.115V22.985C68.0253 21.419 68.3043 20.087 68.8623 18.989C69.4203 17.873 70.1853 17.027 71.1573 16.451C72.1293 15.857 73.2453 15.56 74.5053 15.56ZM74.5053 19.34C73.9653 19.34 73.5153 19.457 73.1553 19.691C72.7953 19.907 72.5253 20.285 72.3453 20.825C72.1653 21.347 72.0753 22.067 72.0753 22.985V28.115C72.0753 28.583 72.0933 29.015 72.1293 29.411C72.1833 29.807 72.2553 30.149 72.3453 30.437C72.4353 30.725 72.5433 30.941 72.6693 31.085C72.8673 31.283 73.0923 31.445 73.3443 31.571C73.6143 31.697 73.9473 31.76 74.3433 31.76C74.9013 31.76 75.3693 31.643 75.7473 31.409C76.1433 31.157 76.4403 30.77 76.6383 30.248C76.8363 29.708 76.9353 28.997 76.9353 28.115V22.877C76.9353 22.373 76.9083 21.941 76.8543 21.581C76.8003 21.203 76.7193 20.888 76.6113 20.636C76.5213 20.366 76.4043 20.15 76.2603 19.988C76.0803 19.772 75.8373 19.61 75.5313 19.502C75.2253 19.394 74.8833 19.34 74.5053 19.34ZM77.8263 21.041V24.659H75.8553L76.5303 24.254C76.4043 24.632 76.2603 24.974 76.0983 25.28C75.9543 25.568 75.7653 25.856 75.5313 26.144C75.2973 26.414 74.9913 26.72 74.6133 27.062C74.1813 27.458 73.7763 27.827 73.3983 28.169C73.0203 28.511 72.6333 28.844 72.2373 29.168C71.8593 29.492 71.4363 29.843 70.9683 30.221V26.36H73.0473L72.3993 26.9C72.5433 26.486 72.6963 26.126 72.8583 25.82C73.0383 25.496 73.2723 25.172 73.5603 24.848C73.8483 24.524 74.2353 24.146 74.7213 23.714C75.2613 23.246 75.7653 22.805 76.2333 22.391C76.7193 21.977 77.2503 21.527 77.8263 21.041Z" fill="white"/>
<path d="M24.5053 65.56C25.7833 65.56 26.9083 65.857 27.8803 66.451C28.8523 67.027 29.6083 67.873 30.1483 68.989C30.7063 70.087 30.9853 71.419 30.9853 72.985V78.115C30.9853 79.663 30.7063 80.995 30.1483 82.111C29.5903 83.227 28.8253 84.082 27.8533 84.676C26.8813 85.252 25.7653 85.54 24.5053 85.54C23.5693 85.54 22.7053 85.369 21.9133 85.027C21.1213 84.703 20.4283 84.226 19.8343 83.596C19.2583 82.948 18.8083 82.165 18.4843 81.247C18.1783 80.329 18.0253 79.285 18.0253 78.115V72.985C18.0253 71.419 18.3043 70.087 18.8623 68.989C19.4203 67.873 20.1853 67.027 21.1573 66.451C22.1293 65.857 23.2453 65.56 24.5053 65.56ZM24.5053 69.34C23.9653 69.34 23.5153 69.457 23.1553 69.691C22.7953 69.907 22.5253 70.285 22.3453 70.825C22.1653 71.347 22.0753 72.067 22.0753 72.985V78.115C22.0753 78.583 22.0933 79.015 22.1293 79.411C22.1833 79.807 22.2553 80.149 22.3453 80.437C22.4353 80.725 22.5433 80.941 22.6693 81.085C22.8673 81.283 23.0923 81.445 23.3443 81.571C23.6143 81.697 23.9473 81.76 24.3433 81.76C24.9013 81.76 25.3693 81.643 25.7473 81.409C26.1433 81.157 26.4403 80.77 26.6383 80.248C26.8363 79.708 26.9353 78.997 26.9353 78.115V72.877C26.9353 72.373 26.9083 71.941 26.8543 71.581C26.8003 71.203 26.7193 70.888 26.6113 70.636C26.5213 70.366 26.4043 70.15 26.2603 69.988C26.0803 69.772 25.8373 69.61 25.5313 69.502C25.2253 69.394 24.8833 69.34 24.5053 69.34ZM27.8263 71.041V74.659H25.8553L26.5303 74.254C26.4043 74.632 26.2603 74.974 26.0983 75.28C25.9543 75.568 25.7653 75.856 25.5313 76.144C25.2973 76.414 24.9913 76.72 24.6133 77.062C24.1813 77.458 23.7763 77.827 23.3983 78.169C23.0203 78.511 22.6333 78.844 22.2373 79.168C21.8593 79.492 21.4363 79.843 20.9683 80.221V76.36H23.0473L22.3993 76.9C22.5433 76.486 22.6963 76.126 22.8583 75.82C23.0383 75.496 23.2723 75.172 23.5603 74.848C23.8483 74.524 24.2353 74.146 24.7213 73.714C25.2613 73.246 25.7653 72.805 26.2333 72.391C26.7193 71.977 27.2503 71.527 27.8263 71.041Z" fill="white"/>
</mask>
<g mask="url(#mask0_5_13286)">
<rect width="50" height="50" fill="#EA3328"/>
<rect x="50" width="50" height="50" fill="#EE7B30"/>
<rect y="50" width="50" height="50" fill="#F4D34E"/>
<rect x="50" y="50" width="50" height="50" fill="#A414A7"/>
</g>
</svg>
