<svg width="150" height="151" viewBox="0 0 150 151" fill="none" xmlns="http://www.w3.org/2000/svg">
<path d="M0 40C0 21.1438 0 11.7157 5.85786 5.85786C11.7157 0 21.1438 0 40 0H110C128.856 0 138.284 0 144.142 5.85786C150 11.7157 150 21.1438 150 40V111C150 129.856 150 139.284 144.142 145.142C138.284 151 128.856 151 110 151H40C21.1438 151 11.7157 151 5.85786 145.142C0 139.284 0 129.856 0 111V40Z" fill="#1F222C"/>
<mask id="mask0_5_13839" style="mask-type:alpha" maskUnits="userSpaceOnUse" x="0" y="0" width="250" height="250">
<path d="M23.2093 15.83C23.2813 15.83 23.4523 15.83 23.7223 15.83C23.9923 15.83 24.3163 15.83 24.6943 15.83C25.0723 15.83 25.4413 15.83 25.8013 15.83C26.1793 15.83 26.4943 15.83 26.7463 15.83C26.9983 15.83 27.1423 15.83 27.1783 15.83C27.2503 15.83 27.3043 15.848 27.3403 15.884C27.3763 15.902 27.4033 15.929 27.4213 15.965C27.4573 16.001 27.4753 16.055 27.4753 16.127C27.4753 16.163 27.4753 16.478 27.4753 17.072C27.4753 17.648 27.4753 18.404 27.4753 19.34C27.4753 20.258 27.4753 21.275 27.4753 22.391C27.4753 23.489 27.4753 24.596 27.4753 25.712C27.4753 26.828 27.4753 27.854 27.4753 28.79C27.4753 29.708 27.4753 30.464 27.4753 31.058C27.4753 31.634 27.4753 31.94 27.4753 31.976H23.2633L23.4253 31.274C23.4253 31.094 23.4253 30.797 23.4253 30.383C23.4253 29.951 23.4253 29.528 23.4253 29.114C23.4253 28.682 23.4253 28.376 23.4253 28.196C23.4253 28.106 23.4253 27.89 23.4253 27.548C23.4253 27.206 23.4253 26.783 23.4253 26.279C23.4253 25.757 23.4253 25.199 23.4253 24.605C23.4253 23.993 23.4253 23.399 23.4253 22.823C23.4253 22.229 23.4253 21.689 23.4253 21.203C23.4253 20.699 23.4253 20.294 23.4253 19.988C23.4253 19.664 23.4253 19.484 23.4253 19.448L23.7223 19.826H22.4533L23.1013 19.367C22.8493 19.889 22.5973 20.33 22.3453 20.69C22.1113 21.05 21.8593 21.356 21.5893 21.608C21.3193 21.86 21.0223 22.112 20.6983 22.364C20.4283 22.562 20.1943 22.733 19.9963 22.877C19.8163 23.003 19.6723 23.093 19.5643 23.147C19.4563 23.201 19.3753 23.228 19.3213 23.228C19.2853 23.228 19.2493 23.219 19.2133 23.201C19.1773 23.183 19.1503 23.156 19.1323 23.12C19.1143 23.066 19.1053 23.012 19.1053 22.958V18.638C19.4473 18.404 19.7893 18.17 20.1313 17.936C20.4733 17.702 20.8153 17.468 21.1573 17.234C21.3913 17.072 21.6523 16.892 21.9403 16.694C22.2283 16.496 22.4893 16.316 22.7233 16.154C22.9753 15.992 23.1373 15.884 23.2093 15.83ZM18.5653 31.166C18.6013 31.166 18.8443 31.166 19.2943 31.166C19.7623 31.166 20.3563 31.166 21.0763 31.166C21.8143 31.166 22.6063 31.166 23.4523 31.166C24.3163 31.166 25.1803 31.166 26.0443 31.166C26.9083 31.166 27.7003 31.166 28.4203 31.166C29.1583 31.166 29.7523 31.166 30.2023 31.166C30.6703 31.166 30.9223 31.166 30.9583 31.166C31.0483 31.166 31.1203 31.193 31.1743 31.247C31.2283 31.301 31.2553 31.373 31.2553 31.463C31.2553 31.535 31.2553 31.742 31.2553 32.084C31.2553 32.426 31.2553 32.813 31.2553 33.245C31.2553 33.659 31.2553 34.037 31.2553 34.379C31.2553 34.721 31.2553 34.928 31.2553 35C31.2193 35 30.9763 35 30.5263 35C30.0763 35 29.4913 35 28.7713 35C28.0513 35 27.2593 35 26.3953 35C25.5313 35 24.6673 35 23.8033 35C22.9573 35 22.1653 35 21.4273 35C20.6893 35 20.0863 35 19.6183 35C19.1683 35 18.9163 35 18.8623 35C18.8083 35 18.7633 34.991 18.7273 34.973C18.7093 34.955 18.6823 34.937 18.6463 34.919C18.6283 34.883 18.6103 34.847 18.5923 34.811C18.5743 34.775 18.5653 34.739 18.5653 34.703C18.5653 34.649 18.5653 34.505 18.5653 34.271C18.5653 34.037 18.5653 33.758 18.5653 33.434C18.5653 33.092 18.5653 32.759 18.5653 32.435C18.5653 32.111 18.5653 31.832 18.5653 31.598C18.5653 31.364 18.5653 31.22 18.5653 31.166Z" fill="white"/>
<path d="M73.2093 65.83C73.2813 65.83 73.4523 65.83 73.7223 65.83C73.9923 65.83 74.3163 65.83 74.6943 65.83C75.0723 65.83 75.4413 65.83 75.8013 65.83C76.1793 65.83 76.4943 65.83 76.7463 65.83C76.9983 65.83 77.1423 65.83 77.1783 65.83C77.2503 65.83 77.3043 65.848 77.3403 65.884C77.3763 65.902 77.4033 65.929 77.4213 65.965C77.4573 66.001 77.4753 66.055 77.4753 66.127C77.4753 66.163 77.4753 66.478 77.4753 67.072C77.4753 67.648 77.4753 68.404 77.4753 69.34C77.4753 70.258 77.4753 71.275 77.4753 72.391C77.4753 73.489 77.4753 74.596 77.4753 75.712C77.4753 76.828 77.4753 77.854 77.4753 78.79C77.4753 79.708 77.4753 80.464 77.4753 81.058C77.4753 81.634 77.4753 81.94 77.4753 81.976H73.2633L73.4253 81.274C73.4253 81.094 73.4253 80.797 73.4253 80.383C73.4253 79.951 73.4253 79.528 73.4253 79.114C73.4253 78.682 73.4253 78.376 73.4253 78.196C73.4253 78.106 73.4253 77.89 73.4253 77.548C73.4253 77.206 73.4253 76.783 73.4253 76.279C73.4253 75.757 73.4253 75.199 73.4253 74.605C73.4253 73.993 73.4253 73.399 73.4253 72.823C73.4253 72.229 73.4253 71.689 73.4253 71.203C73.4253 70.699 73.4253 70.294 73.4253 69.988C73.4253 69.664 73.4253 69.484 73.4253 69.448L73.7223 69.826H72.4533L73.1013 69.367C72.8493 69.889 72.5973 70.33 72.3453 70.69C72.1113 71.05 71.8593 71.356 71.5893 71.608C71.3193 71.86 71.0223 72.112 70.6983 72.364C70.4283 72.562 70.1943 72.733 69.9963 72.877C69.8163 73.003 69.6723 73.093 69.5643 73.147C69.4563 73.201 69.3753 73.228 69.3213 73.228C69.2853 73.228 69.2493 73.219 69.2133 73.201C69.1773 73.183 69.1503 73.156 69.1323 73.12C69.1143 73.066 69.1053 73.012 69.1053 72.958V68.638C69.4473 68.404 69.7893 68.17 70.1313 67.936C70.4733 67.702 70.8153 67.468 71.1573 67.234C71.3913 67.072 71.6523 66.892 71.9403 66.694C72.2283 66.496 72.4893 66.316 72.7233 66.154C72.9753 65.992 73.1373 65.884 73.2093 65.83ZM68.5653 81.166C68.6013 81.166 68.8443 81.166 69.2943 81.166C69.7623 81.166 70.3563 81.166 71.0763 81.166C71.8143 81.166 72.6063 81.166 73.4523 81.166C74.3163 81.166 75.1803 81.166 76.0443 81.166C76.9083 81.166 77.7003 81.166 78.4203 81.166C79.1583 81.166 79.7523 81.166 80.2023 81.166C80.6703 81.166 80.9223 81.166 80.9583 81.166C81.0483 81.166 81.1203 81.193 81.1743 81.247C81.2283 81.301 81.2553 81.373 81.2553 81.463C81.2553 81.535 81.2553 81.742 81.2553 82.084C81.2553 82.426 81.2553 82.813 81.2553 83.245C81.2553 83.659 81.2553 84.037 81.2553 84.379C81.2553 84.721 81.2553 84.928 81.2553 85C81.2193 85 80.9763 85 80.5263 85C80.0763 85 79.4913 85 78.7713 85C78.0513 85 77.2593 85 76.3953 85C75.5313 85 74.6673 85 73.8033 85C72.9573 85 72.1653 85 71.4273 85C70.6893 85 70.0863 85 69.6183 85C69.1683 85 68.9163 85 68.8623 85C68.8083 85 68.7633 84.991 68.7273 84.973C68.7093 84.955 68.6823 84.937 68.6463 84.919C68.6283 84.883 68.6103 84.847 68.5923 84.811C68.5743 84.775 68.5653 84.739 68.5653 84.703C68.5653 84.649 68.5653 84.505 68.5653 84.271C68.5653 84.037 68.5653 83.758 68.5653 83.434C68.5653 83.092 68.5653 82.759 68.5653 82.435C68.5653 82.111 68.5653 81.832 68.5653 81.598C68.5653 81.364 68.5653 81.22 68.5653 81.166Z" fill="white"/>
<path d="M74.5053 15.56C75.7833 15.56 76.9083 15.857 77.8803 16.451C78.8523 17.027 79.6083 17.873 80.1483 18.989C80.7063 20.087 80.9853 21.419 80.9853 22.985V28.115C80.9853 29.663 80.7063 30.995 80.1483 32.111C79.5903 33.227 78.8253 34.082 77.8533 34.676C76.8813 35.252 75.7653 35.54 74.5053 35.54C73.5693 35.54 72.7053 35.369 71.9133 35.027C71.1213 34.703 70.4283 34.226 69.8343 33.596C69.2583 32.948 68.8083 32.165 68.4843 31.247C68.1783 30.329 68.0253 29.285 68.0253 28.115V22.985C68.0253 21.419 68.3043 20.087 68.8623 18.989C69.4203 17.873 70.1853 17.027 71.1573 16.451C72.1293 15.857 73.2453 15.56 74.5053 15.56ZM74.5053 19.34C73.9653 19.34 73.5153 19.457 73.1553 19.691C72.7953 19.907 72.5253 20.285 72.3453 20.825C72.1653 21.347 72.0753 22.067 72.0753 22.985V28.115C72.0753 28.583 72.0933 29.015 72.1293 29.411C72.1833 29.807 72.2553 30.149 72.3453 30.437C72.4353 30.725 72.5433 30.941 72.6693 31.085C72.8673 31.283 73.0923 31.445 73.3443 31.571C73.6143 31.697 73.9473 31.76 74.3433 31.76C74.9013 31.76 75.3693 31.643 75.7473 31.409C76.1433 31.157 76.4403 30.77 76.6383 30.248C76.8363 29.708 76.9353 28.997 76.9353 28.115V22.877C76.9353 22.373 76.9083 21.941 76.8543 21.581C76.8003 21.203 76.7193 20.888 76.6113 20.636C76.5213 20.366 76.4043 20.15 76.2603 19.988C76.0803 19.772 75.8373 19.61 75.5313 19.502C75.2253 19.394 74.8833 19.34 74.5053 19.34ZM77.8263 21.041V24.659H75.8553L76.5303 24.254C76.4043 24.632 76.2603 24.974 76.0983 25.28C75.9543 25.568 75.7653 25.856 75.5313 26.144C75.2973 26.414 74.9913 26.72 74.6133 27.062C74.1813 27.458 73.7763 27.827 73.3983 28.169C73.0203 28.511 72.6333 28.844 72.2373 29.168C71.8593 29.492 71.4363 29.843 70.9683 30.221V26.36H73.0473L72.3993 26.9C72.5433 26.486 72.6963 26.126 72.8583 25.82C73.0383 25.496 73.2723 25.172 73.5603 24.848C73.8483 24.524 74.2353 24.146 74.7213 23.714C75.2613 23.246 75.7653 22.805 76.2333 22.391C76.7193 21.977 77.2503 21.527 77.8263 21.041Z" fill="white"/>
<path d="M24.5053 65.56C25.7833 65.56 26.9083 65.857 27.8803 66.451C28.8523 67.027 29.6083 67.873 30.1483 68.989C30.7063 70.087 30.9853 71.419 30.9853 72.985V78.115C30.9853 79.663 30.7063 80.995 30.1483 82.111C29.5903 83.227 28.8253 84.082 27.8533 84.676C26.8813 85.252 25.7653 85.54 24.5053 85.54C23.5693 85.54 22.7053 85.369 21.9133 85.027C21.1213 84.703 20.4283 84.226 19.8343 83.596C19.2583 82.948 18.8083 82.165 18.4843 81.247C18.1783 80.329 18.0253 79.285 18.0253 78.115V72.985C18.0253 71.419 18.3043 70.087 18.8623 68.989C19.4203 67.873 20.1853 67.027 21.1573 66.451C22.1293 65.857 23.2453 65.56 24.5053 65.56ZM24.5053 69.34C23.9653 69.34 23.5153 69.457 23.1553 69.691C22.7953 69.907 22.5253 70.285 22.3453 70.825C22.1653 71.347 22.0753 72.067 22.0753 72.985V78.115C22.0753 78.583 22.0933 79.015 22.1293 79.411C22.1833 79.807 22.2553 80.149 22.3453 80.437C22.4353 80.725 22.5433 80.941 22.6693 81.085C22.8673 81.283 23.0923 81.445 23.3443 81.571C23.6143 81.697 23.9473 81.76 24.3433 81.76C24.9013 81.76 25.3693 81.643 25.7473 81.409C26.1433 81.157 26.4403 80.77 26.6383 80.248C26.8363 79.708 26.9353 78.997 26.9353 78.115V72.877C26.9353 72.373 26.9083 71.941 26.8543 71.581C26.8003 71.203 26.7193 70.888 26.6113 70.636C26.5213 70.366 26.4043 70.15 26.2603 69.988C26.0803 69.772 25.8373 69.61 25.5313 69.502C25.2253 69.394 24.8833 69.34 24.5053 69.34ZM27.8263 71.041V74.659H25.8553L26.5303 74.254C26.4043 74.632 26.2603 74.974 26.0983 75.28C25.9543 75.568 25.7653 75.856 25.5313 76.144C25.2973 76.414 24.9913 76.72 24.6133 77.062C24.1813 77.458 23.7763 77.827 23.3983 78.169C23.0203 78.511 22.6333 78.844 22.2373 79.168C21.8593 79.492 21.4363 79.843 20.9683 80.221V76.36H23.0473L22.3993 76.9C22.5433 76.486 22.6963 76.126 22.8583 75.82C23.0383 75.496 23.2723 75.172 23.5603 74.848C23.8483 74.524 24.2353 74.146 24.7213 73.714C25.2613 73.246 25.7653 72.805 26.2333 72.391C26.7193 71.977 27.2503 71.527 27.8263 71.041Z" fill="white"/>
<path d="M123.209 15.83C123.281 15.83 123.452 15.83 123.722 15.83C123.992 15.83 124.316 15.83 124.694 15.83C125.072 15.83 125.441 15.83 125.801 15.83C126.179 15.83 126.494 15.83 126.746 15.83C126.998 15.83 127.142 15.83 127.178 15.83C127.25 15.83 127.304 15.848 127.34 15.884C127.376 15.902 127.403 15.929 127.421 15.965C127.457 16.001 127.475 16.055 127.475 16.127C127.475 16.163 127.475 16.478 127.475 17.072C127.475 17.648 127.475 18.404 127.475 19.34C127.475 20.258 127.475 21.275 127.475 22.391C127.475 23.489 127.475 24.596 127.475 25.712C127.475 26.828 127.475 27.854 127.475 28.79C127.475 29.708 127.475 30.464 127.475 31.058C127.475 31.634 127.475 31.94 127.475 31.976H123.263L123.425 31.274C123.425 31.094 123.425 30.797 123.425 30.383C123.425 29.951 123.425 29.528 123.425 29.114C123.425 28.682 123.425 28.376 123.425 28.196C123.425 28.106 123.425 27.89 123.425 27.548C123.425 27.206 123.425 26.783 123.425 26.279C123.425 25.757 123.425 25.199 123.425 24.605C123.425 23.993 123.425 23.399 123.425 22.823C123.425 22.229 123.425 21.689 123.425 21.203C123.425 20.699 123.425 20.294 123.425 19.988C123.425 19.664 123.425 19.484 123.425 19.448L123.722 19.826H122.453L123.101 19.367C122.849 19.889 122.597 20.33 122.345 20.69C122.111 21.05 121.859 21.356 121.589 21.608C121.319 21.86 121.022 22.112 120.698 22.364C120.428 22.562 120.194 22.733 119.996 22.877C119.816 23.003 119.672 23.093 119.564 23.147C119.456 23.201 119.375 23.228 119.321 23.228C119.285 23.228 119.249 23.219 119.213 23.201C119.177 23.183 119.15 23.156 119.132 23.12C119.114 23.066 119.105 23.012 119.105 22.958V18.638C119.447 18.404 119.789 18.17 120.131 17.936C120.473 17.702 120.815 17.468 121.157 17.234C121.391 17.072 121.652 16.892 121.94 16.694C122.228 16.496 122.489 16.316 122.723 16.154C122.975 15.992 123.137 15.884 123.209 15.83ZM118.565 31.166C118.601 31.166 118.844 31.166 119.294 31.166C119.762 31.166 120.356 31.166 121.076 31.166C121.814 31.166 122.606 31.166 123.452 31.166C124.316 31.166 125.18 31.166 126.044 31.166C126.908 31.166 127.7 31.166 128.42 31.166C129.158 31.166 129.752 31.166 130.202 31.166C130.67 31.166 130.922 31.166 130.958 31.166C131.048 31.166 131.12 31.193 131.174 31.247C131.228 31.301 131.255 31.373 131.255 31.463C131.255 31.535 131.255 31.742 131.255 32.084C131.255 32.426 131.255 32.813 131.255 33.245C131.255 33.659 131.255 34.037 131.255 34.379C131.255 34.721 131.255 34.928 131.255 35C131.219 35 130.976 35 130.526 35C130.076 35 129.491 35 128.771 35C128.051 35 127.259 35 126.395 35C125.531 35 124.667 35 123.803 35C122.957 35 122.165 35 121.427 35C120.689 35 120.086 35 119.618 35C119.168 35 118.916 35 118.862 35C118.808 35 118.763 34.991 118.727 34.973C118.709 34.955 118.682 34.937 118.646 34.919C118.628 34.883 118.61 34.847 118.592 34.811C118.574 34.775 118.565 34.739 118.565 34.703C118.565 34.649 118.565 34.505 118.565 34.271C118.565 34.037 118.565 33.758 118.565 33.434C118.565 33.092 118.565 32.759 118.565 32.435C118.565 32.111 118.565 31.832 118.565 31.598C118.565 31.364 118.565 31.22 118.565 31.166Z" fill="white"/>
<path d="M23.2093 115.83C23.2813 115.83 23.4523 115.83 23.7223 115.83C23.9923 115.83 24.3163 115.83 24.6943 115.83C25.0723 115.83 25.4413 115.83 25.8013 115.83C26.1793 115.83 26.4943 115.83 26.7463 115.83C26.9983 115.83 27.1423 115.83 27.1783 115.83C27.2503 115.83 27.3043 115.848 27.3403 115.884C27.3763 115.902 27.4033 115.929 27.4213 115.965C27.4573 116.001 27.4753 116.055 27.4753 116.127C27.4753 116.163 27.4753 116.478 27.4753 117.072C27.4753 117.648 27.4753 118.404 27.4753 119.34C27.4753 120.258 27.4753 121.275 27.4753 122.391C27.4753 123.489 27.4753 124.596 27.4753 125.712C27.4753 126.828 27.4753 127.854 27.4753 128.79C27.4753 129.708 27.4753 130.464 27.4753 131.058C27.4753 131.634 27.4753 131.94 27.4753 131.976H23.2633L23.4253 131.274C23.4253 131.094 23.4253 130.797 23.4253 130.383C23.4253 129.951 23.4253 129.528 23.4253 129.114C23.4253 128.682 23.4253 128.376 23.4253 128.196C23.4253 128.106 23.4253 127.89 23.4253 127.548C23.4253 127.206 23.4253 126.783 23.4253 126.279C23.4253 125.757 23.4253 125.199 23.4253 124.605C23.4253 123.993 23.4253 123.399 23.4253 122.823C23.4253 122.229 23.4253 121.689 23.4253 121.203C23.4253 120.699 23.4253 120.294 23.4253 119.988C23.4253 119.664 23.4253 119.484 23.4253 119.448L23.7223 119.826H22.4533L23.1013 119.367C22.8493 119.889 22.5973 120.33 22.3453 120.69C22.1113 121.05 21.8593 121.356 21.5893 121.608C21.3193 121.86 21.0223 122.112 20.6983 122.364C20.4283 122.562 20.1943 122.733 19.9963 122.877C19.8163 123.003 19.6723 123.093 19.5643 123.147C19.4563 123.201 19.3753 123.228 19.3213 123.228C19.2853 123.228 19.2493 123.219 19.2133 123.201C19.1773 123.183 19.1503 123.156 19.1323 123.12C19.1143 123.066 19.1053 123.012 19.1053 122.958V118.638C19.4473 118.404 19.7893 118.17 20.1313 117.936C20.4733 117.702 20.8153 117.468 21.1573 117.234C21.3913 117.072 21.6523 116.892 21.9403 116.694C22.2283 116.496 22.4893 116.316 22.7233 116.154C22.9753 115.992 23.1373 115.884 23.2093 115.83ZM18.5653 131.166C18.6013 131.166 18.8443 131.166 19.2943 131.166C19.7623 131.166 20.3563 131.166 21.0763 131.166C21.8143 131.166 22.6063 131.166 23.4523 131.166C24.3163 131.166 25.1803 131.166 26.0443 131.166C26.9083 131.166 27.7003 131.166 28.4203 131.166C29.1583 131.166 29.7523 131.166 30.2023 131.166C30.6703 131.166 30.9223 131.166 30.9583 131.166C31.0483 131.166 31.1203 131.193 31.1743 131.247C31.2283 131.301 31.2553 131.373 31.2553 131.463C31.2553 131.535 31.2553 131.742 31.2553 132.084C31.2553 132.426 31.2553 132.813 31.2553 133.245C31.2553 133.659 31.2553 134.037 31.2553 134.379C31.2553 134.721 31.2553 134.928 31.2553 135C31.2193 135 30.9763 135 30.5263 135C30.0763 135 29.4913 135 28.7713 135C28.0513 135 27.2593 135 26.3953 135C25.5313 135 24.6673 135 23.8033 135C22.9573 135 22.1653 135 21.4273 135C20.6893 135 20.0863 135 19.6183 135C19.1683 135 18.9163 135 18.8623 135C18.8083 135 18.7633 134.991 18.7273 134.973C18.7093 134.955 18.6823 134.937 18.6463 134.919C18.6283 134.883 18.6103 134.847 18.5923 134.811C18.5743 134.775 18.5653 134.739 18.5653 134.703C18.5653 134.649 18.5653 134.505 18.5653 134.271C18.5653 134.037 18.5653 133.758 18.5653 133.434C18.5653 133.092 18.5653 132.759 18.5653 132.435C18.5653 132.111 18.5653 131.832 18.5653 131.598C18.5653 131.364 18.5653 131.22 18.5653 131.166Z" fill="white"/>
<path d="M74.5053 115.56C75.7833 115.56 76.9083 115.857 77.8803 116.451C78.8523 117.027 79.6083 117.873 80.1483 118.989C80.7063 120.087 80.9853 121.419 80.9853 122.985V128.115C80.9853 129.663 80.7063 130.995 80.1483 132.111C79.5903 133.227 78.8253 134.082 77.8533 134.676C76.8813 135.252 75.7653 135.54 74.5053 135.54C73.5693 135.54 72.7053 135.369 71.9133 135.027C71.1213 134.703 70.4283 134.226 69.8343 133.596C69.2583 132.948 68.8083 132.165 68.4843 131.247C68.1783 130.329 68.0253 129.285 68.0253 128.115V122.985C68.0253 121.419 68.3043 120.087 68.8623 118.989C69.4203 117.873 70.1853 117.027 71.1573 116.451C72.1293 115.857 73.2453 115.56 74.5053 115.56ZM74.5053 119.34C73.9653 119.34 73.5153 119.457 73.1553 119.691C72.7953 119.907 72.5253 120.285 72.3453 120.825C72.1653 121.347 72.0753 122.067 72.0753 122.985V128.115C72.0753 128.583 72.0933 129.015 72.1293 129.411C72.1833 129.807 72.2553 130.149 72.3453 130.437C72.4353 130.725 72.5433 130.941 72.6693 131.085C72.8673 131.283 73.0923 131.445 73.3443 131.571C73.6143 131.697 73.9473 131.76 74.3433 131.76C74.9013 131.76 75.3693 131.643 75.7473 131.409C76.1433 131.157 76.4403 130.77 76.6383 130.248C76.8363 129.708 76.9353 128.997 76.9353 128.115V122.877C76.9353 122.373 76.9083 121.941 76.8543 121.581C76.8003 121.203 76.7193 120.888 76.6113 120.636C76.5213 120.366 76.4043 120.15 76.2603 119.988C76.0803 119.772 75.8373 119.61 75.5313 119.502C75.2253 119.394 74.8833 119.34 74.5053 119.34ZM77.8263 121.041V124.659H75.8553L76.5303 124.254C76.4043 124.632 76.2603 124.974 76.0983 125.28C75.9543 125.568 75.7653 125.856 75.5313 126.144C75.2973 126.414 74.9913 126.72 74.6133 127.062C74.1813 127.458 73.7763 127.827 73.3983 128.169C73.0203 128.511 72.6333 128.844 72.2373 129.168C71.8593 129.492 71.4363 129.843 70.9683 130.221V126.36H73.0473L72.3993 126.9C72.5433 126.486 72.6963 126.126 72.8583 125.82C73.0383 125.496 73.2723 125.172 73.5603 124.848C73.8483 124.524 74.2353 124.146 74.7213 123.714C75.2613 123.246 75.7653 122.805 76.2333 122.391C76.7193 121.977 77.2503 121.527 77.8263 121.041Z" fill="white"/>
<path d="M123.209 115.83C123.281 115.83 123.452 115.83 123.722 115.83C123.992 115.83 124.316 115.83 124.694 115.83C125.072 115.83 125.441 115.83 125.801 115.83C126.179 115.83 126.494 115.83 126.746 115.83C126.998 115.83 127.142 115.83 127.178 115.83C127.25 115.83 127.304 115.848 127.34 115.884C127.376 115.902 127.403 115.929 127.421 115.965C127.457 116.001 127.475 116.055 127.475 116.127C127.475 116.163 127.475 116.478 127.475 117.072C127.475 117.648 127.475 118.404 127.475 119.34C127.475 120.258 127.475 121.275 127.475 122.391C127.475 123.489 127.475 124.596 127.475 125.712C127.475 126.828 127.475 127.854 127.475 128.79C127.475 129.708 127.475 130.464 127.475 131.058C127.475 131.634 127.475 131.94 127.475 131.976H123.263L123.425 131.274C123.425 131.094 123.425 130.797 123.425 130.383C123.425 129.951 123.425 129.528 123.425 129.114C123.425 128.682 123.425 128.376 123.425 128.196C123.425 128.106 123.425 127.89 123.425 127.548C123.425 127.206 123.425 126.783 123.425 126.279C123.425 125.757 123.425 125.199 123.425 124.605C123.425 123.993 123.425 123.399 123.425 122.823C123.425 122.229 123.425 121.689 123.425 121.203C123.425 120.699 123.425 120.294 123.425 119.988C123.425 119.664 123.425 119.484 123.425 119.448L123.722 119.826H122.453L123.101 119.367C122.849 119.889 122.597 120.33 122.345 120.69C122.111 121.05 121.859 121.356 121.589 121.608C121.319 121.86 121.022 122.112 120.698 122.364C120.428 122.562 120.194 122.733 119.996 122.877C119.816 123.003 119.672 123.093 119.564 123.147C119.456 123.201 119.375 123.228 119.321 123.228C119.285 123.228 119.249 123.219 119.213 123.201C119.177 123.183 119.15 123.156 119.132 123.12C119.114 123.066 119.105 123.012 119.105 122.958V118.638C119.447 118.404 119.789 118.17 120.131 117.936C120.473 117.702 120.815 117.468 121.157 117.234C121.391 117.072 121.652 116.892 121.94 116.694C122.228 116.496 122.489 116.316 122.723 116.154C122.975 115.992 123.137 115.884 123.209 115.83ZM118.565 131.166C118.601 131.166 118.844 131.166 119.294 131.166C119.762 131.166 120.356 131.166 121.076 131.166C121.814 131.166 122.606 131.166 123.452 131.166C124.316 131.166 125.18 131.166 126.044 131.166C126.908 131.166 127.7 131.166 128.42 131.166C129.158 131.166 129.752 131.166 130.202 131.166C130.67 131.166 130.922 131.166 130.958 131.166C131.048 131.166 131.12 131.193 131.174 131.247C131.228 131.301 131.255 131.373 131.255 131.463C131.255 131.535 131.255 131.742 131.255 132.084C131.255 132.426 131.255 132.813 131.255 133.245C131.255 133.659 131.255 134.037 131.255 134.379C131.255 134.721 131.255 134.928 131.255 135C131.219 135 130.976 135 130.526 135C130.076 135 129.491 135 128.771 135C128.051 135 127.259 135 126.395 135C125.531 135 124.667 135 123.803 135C122.957 135 122.165 135 121.427 135C120.689 135 120.086 135 119.618 135C119.168 135 118.916 135 118.862 135C118.808 135 118.763 134.991 118.727 134.973C118.709 134.955 118.682 134.937 118.646 134.919C118.628 134.883 118.61 134.847 118.592 134.811C118.574 134.775 118.565 134.739 118.565 134.703C118.565 134.649 118.565 134.505 118.565 134.271C118.565 134.037 118.565 133.758 118.565 133.434C118.565 133.092 118.565 132.759 118.565 132.435C118.565 132.111 118.565 131.832 118.565 131.598C118.565 131.364 118.565 131.22 118.565 131.166Z" fill="white"/>
<path d="M124.505 65.56C125.783 65.56 126.908 65.857 127.88 66.451C128.852 67.027 129.608 67.873 130.148 68.989C130.706 70.087 130.985 71.419 130.985 72.985V78.115C130.985 79.663 130.706 80.995 130.148 82.111C129.59 83.227 128.825 84.082 127.853 84.676C126.881 85.252 125.765 85.54 124.505 85.54C123.569 85.54 122.705 85.369 121.913 85.027C121.121 84.703 120.428 84.226 119.834 83.596C119.258 82.948 118.808 82.165 118.484 81.247C118.178 80.329 118.025 79.285 118.025 78.115V72.985C118.025 71.419 118.304 70.087 118.862 68.989C119.42 67.873 120.185 67.027 121.157 66.451C122.129 65.857 123.245 65.56 124.505 65.56ZM124.505 69.34C123.965 69.34 123.515 69.457 123.155 69.691C122.795 69.907 122.525 70.285 122.345 70.825C122.165 71.347 122.075 72.067 122.075 72.985V78.115C122.075 78.583 122.093 79.015 122.129 79.411C122.183 79.807 122.255 80.149 122.345 80.437C122.435 80.725 122.543 80.941 122.669 81.085C122.867 81.283 123.092 81.445 123.344 81.571C123.614 81.697 123.947 81.76 124.343 81.76C124.901 81.76 125.369 81.643 125.747 81.409C126.143 81.157 126.44 80.77 126.638 80.248C126.836 79.708 126.935 78.997 126.935 78.115V72.877C126.935 72.373 126.908 71.941 126.854 71.581C126.8 71.203 126.719 70.888 126.611 70.636C126.521 70.366 126.404 70.15 126.26 69.988C126.08 69.772 125.837 69.61 125.531 69.502C125.225 69.394 124.883 69.34 124.505 69.34ZM127.826 71.041V74.659H125.855L126.53 74.254C126.404 74.632 126.26 74.974 126.098 75.28C125.954 75.568 125.765 75.856 125.531 76.144C125.297 76.414 124.991 76.72 124.613 77.062C124.181 77.458 123.776 77.827 123.398 78.169C123.02 78.511 122.633 78.844 122.237 79.168C121.859 79.492 121.436 79.843 120.968 80.221V76.36H123.047L122.399 76.9C122.543 76.486 122.696 76.126 122.858 75.82C123.038 75.496 123.272 75.172 123.56 74.848C123.848 74.524 124.235 74.146 124.721 73.714C125.261 73.246 125.765 72.805 126.233 72.391C126.719 71.977 127.25 71.527 127.826 71.041Z" fill="white"/>
</mask>
<g mask="url(#mask0_5_13839)">
<path d="M0 0H150V150H0V0Z" fill="url(#paint0_linear_5_13839)"/>
</g>
<defs>
<linearGradient id="paint0_linear_5_13839" x1="25.5" y1="26" x2="124" y2="129" gradientUnits="userSpaceOnUse">
<stop stop-color="#EA3328"/>
<stop offset="0.200227" stop-color="#EE7B30"/>
<stop offset="0.355434" stop-color="#EEF141"/>
<stop offset="0.434659" stop-color="#F4D34E"/>
<stop offset="0.59952" stop-color="#22BE2C"/>
<stop offset="0.764843" stop-color="#0157BC"/>
<stop offset="0.999683" stop-color="#A414A7"/>
</linearGradient>
</defs>
</svg>
